# xmcd
#
# Track frame offsets:
#	150
#	14390
#	32403
#	53635
#	81350
#	96710
#	115311
#	151302
#	173653
#	197414
#	221831
#	247635
#	273311
#
# Disc length: 4034 seconds
# Revision: 0
# Processed by: cddbd v1.5.2PL0 Copyright (c) Steve Scherf et al.
# Submitted via: dBpowerAMP V12.0
#
DISCID=a50fc00d
DTITLE=Dave Stamey with Annie Lydon - Live in Santa Ynez
DYEAR=2014
DGENRE=Country
TTITLE0=Sweet Grass County Line
TTITLE1=All I Need Is You
TTITLE2=Blackjack Was a Mule
TTITLE3=The Circle
TTITLE4=There Is An Echo
TTITLE5=Mojave Moon
TTITLE6=Tonopah
TTITLE7=Comfortable Shoes
TTITLE8=Sunrise
TTITLE9=Spin That Pony
TTITLE10=Free and Easy
TTITLE11=Song for Jake
TTITLE12=Come Ride With Me
EXTD=
EXTT0=
EXTT1=
EXTT2=
EXTT3=
EXTT4=
EXTT5=
EXTT6=
EXTT7=
EXTT8=
EXTT9=
EXTT10=
EXTT11=
EXTT12=
PLAYORDER=
